<?xml version="1.0" encoding="UTF-8"?>
<svg xmlns="http://www.w3.org/2000/svg" xmlns:xlink="http://www.w3.org/1999/xlink" viewBox="0 0 232.03 232.03">
  <defs>
    <style>
      .cls-1 {
        mask: url(#mask);
      }

      .cls-2 {
        fill: #1a2429;
      }

      .cls-3, .cls-4, .cls-5, .cls-6, .cls-7, .cls-8, .cls-9, .cls-10, .cls-11, .cls-12, .cls-13, .cls-14, .cls-15, .cls-16, .cls-17, .cls-18, .cls-19, .cls-20, .cls-21, .cls-22, .cls-23, .cls-24, .cls-25, .cls-26, .cls-27, .cls-28, .cls-29, .cls-30, .cls-31, .cls-32, .cls-33, .cls-34, .cls-35, .cls-36, .cls-37, .cls-38, .cls-39, .cls-40 {
        fill: none;
        stroke-linecap: round;
      }

      .cls-3, .cls-5, .cls-9, .cls-10, .cls-11, .cls-12, .cls-38, .cls-39 {
        stroke-miterlimit: 4;
      }

      .cls-3, .cls-8, .cls-9, .cls-39 {
        stroke: #1a2429;
      }

      .cls-3, .cls-9 {
        stroke-width: 12px;
      }

      .cls-3, .cls-10, .cls-11, .cls-12, .cls-38, .cls-39 {
        stroke-dasharray: 60 525.57;
      }

      .cls-4 {
        stroke-miterlimit: 6.97;
        stroke-width: 1.39px;
      }

      .cls-4, .cls-7, .cls-40 {
        stroke: #f3f3f3;
      }

      .cls-5, .cls-6, .cls-10, .cls-11, .cls-13 {
        stroke: #0d1113;
      }

      .cls-5, .cls-11 {
        stroke-width: 16px;
      }

      .cls-6 {
        stroke-width: 16px;
      }

      .cls-6, .cls-8 {
        stroke-miterlimit: 4;
      }

      .cls-7 {
        stroke-width: 1.03px;
      }

      .cls-7, .cls-13 {
        stroke-linejoin: round;
      }

      .cls-8 {
        stroke-width: 12px;
      }

      .cls-10 {
        stroke-width: 52px;
      }

      .cls-41 {
        fill: #ff9fa4;
      }

      .cls-12 {
        stroke: #26333a;
      }

      .cls-12, .cls-39 {
        stroke-width: 48px;
      }

      .cls-13 {
        stroke-width: 1.77px;
      }

      .cls-42 {
        fill: #caafaf;
      }

      .cls-43 {
        fill: #536771;
      }

      .cls-44 {
        fill: #1a1a1a;
      }

      .cls-14 {
        stroke-miterlimit: 2.57;
        stroke-width: 5.14px;
      }

      .cls-14, .cls-15, .cls-16, .cls-17, .cls-18, .cls-19, .cls-20, .cls-21, .cls-22, .cls-23, .cls-24, .cls-25, .cls-26, .cls-27, .cls-28, .cls-29, .cls-30, .cls-31, .cls-32, .cls-33, .cls-34, .cls-35, .cls-36, .cls-37, .cls-38 {
        stroke: #3d4c53;
      }

      .cls-15 {
        stroke-miterlimit: 2.57;
        stroke-width: 5.14px;
      }

      .cls-16 {
        stroke-miterlimit: 2.57;
        stroke-width: 5.14px;
      }

      .cls-17 {
        stroke-miterlimit: 2.57;
        stroke-width: 5.14px;
      }

      .cls-18 {
        stroke-miterlimit: 2.57;
        stroke-width: 5.14px;
      }

      .cls-19 {
        stroke-miterlimit: 2.57;
        stroke-width: 5.14px;
      }

      .cls-20 {
        stroke-miterlimit: 2.57;
        stroke-width: 5.14px;
      }

      .cls-21 {
        stroke-miterlimit: 2.57;
        stroke-width: 5.14px;
      }

      .cls-22 {
        stroke-miterlimit: 2.57;
        stroke-width: 5.14px;
      }

      .cls-23 {
        stroke-miterlimit: 2.57;
        stroke-width: 5.14px;
      }

      .cls-24 {
        stroke-miterlimit: 2.57;
        stroke-width: 5.14px;
      }

      .cls-25 {
        stroke-miterlimit: 2.57;
        stroke-width: 5.14px;
      }

      .cls-26 {
        stroke-miterlimit: 4;
        stroke-width: 5px;
      }

      .cls-27 {
        stroke-miterlimit: 4;
        stroke-width: 5px;
      }

      .cls-28 {
        stroke-miterlimit: 4;
        stroke-width: 5px;
      }

      .cls-29 {
        stroke-miterlimit: 4;
        stroke-width: 5px;
      }

      .cls-30 {
        stroke-miterlimit: 4;
        stroke-width: 5px;
      }

      .cls-31 {
        stroke-miterlimit: 4;
        stroke-width: 5px;
      }

      .cls-32 {
        stroke-miterlimit: 4;
        stroke-width: 5px;
      }

      .cls-33 {
        stroke-miterlimit: 4;
        stroke-width: 5px;
      }

      .cls-34 {
        stroke-miterlimit: 4;
        stroke-width: 5px;
      }

      .cls-35 {
        stroke-miterlimit: 4;
        stroke-width: 5px;
      }

      .cls-36 {
        stroke-miterlimit: 4;
        stroke-width: 5px;
      }

      .cls-37 {
        stroke-miterlimit: 4;
        stroke-width: 5px;
      }

      .cls-38 {
        stroke-width: 14px;
      }

      .cls-40 {
        stroke-miterlimit: 8.57;
        stroke-width: 1.97px;
      }
    </style>
    <mask id="mask" x=".48" y="2" width="229.55" height="229.87" maskUnits="userSpaceOnUse">
      <g id="cats-loader-u-masks">
        <path id="cats-loader-u-copy-of-body" class="cls-12" d="M161.01,193.96c-43.05,24.85-98.09,10.1-122.94-32.94s-10.1-98.09,32.94-122.94,98.09-10.1,122.94,32.94,10.1,98.09-32.94,122.94"/>
      </g>
    </mask>
  </defs>
  <g id="cats-loader" shape-rendering="geometricPrecision" text-rendering="geometricPrecision">
    <g id="black_cat">
      <g id="Tail">
        <path id="cats-loader-u-leg-stroke5" class="cls-5" d="M106.87,187.44c-11.49-1.48-22.56-5.72-32.16-12.43"/>
        <path id="cats-loader-u-leg-stroke6" class="cls-5" d="M101.56,223.05c-15.92-2.16-31.28-7.85-44.83-16.74"/>
        <path id="cats-loader-u-tail8" class="cls-11" d="M88.47,201.7c-14.91-4.79-28.61-13.45-39.45-25.56"/>
        <path id="cats-loader-u-tail9" class="cls-3" d="M88.47,201.7c-14.91-4.79-28.61-13.45-39.45-25.56"/>
      </g>
      <path id="Body_stroke" class="cls-10" d="M161.01,193.96c-43.05,24.85-98.09,10.1-122.94-32.94s-10.1-98.09,32.94-122.94,98.09-10.1,122.94,32.94,10.1,98.09-32.94,122.94"/>
      <path id="Body" class="cls-39" d="M161.01,193.96c-43.05,24.85-98.09,10.1-122.94-32.94s-10.1-98.09,32.94-122.94,98.09-10.1,122.94,32.94,10.1,98.09-32.94,122.94"/>
      <g class="cls-1">
        <g id="Mask_group">
          <g id="cats-loader-s-g4">
            <path id="cats-loader-s-path35" class="cls-33" d="M131.28,228.38l-1.27-8.31"/>
            <path id="cats-loader-s-path36" class="cls-29" d="M111.92,229.37l.16-8.41"/>
            <path id="cats-loader-s-path37" class="cls-32" d="M93.13,227.14l1.56-8.27"/>
            <path id="cats-loader-s-path38" class="cls-36" d="M76.63,222.43l2.79-7.93"/>
            <path id="cats-loader-s-path39" class="cls-30" d="M56.29,212.52l4.31-7.22"/>
            <path id="cats-loader-s-path40" class="cls-27" d="M39.29,199.65l5.59-6.28"/>
            <path id="cats-loader-s-path41" class="cls-31" d="M26.28,185.51l6.57-5.25"/>
            <path id="cats-loader-s-path42" class="cls-37" d="M14.83,167.41l7.44-3.92"/>
            <path id="cats-loader-s-path43" class="cls-26" d="M6.89,147.12l8.06-2.42"/>
            <path id="cats-loader-s-path44" class="cls-28" d="M3.08,126.83l8.36-.92"/>
            <path id="cats-loader-s-path45" class="cls-35" d="M2.98,106.72l8.39.58"/>
            <path id="cats-loader-u-copy-of-path6" class="cls-34" d="M150.1,224.13l-2.67-7.98"/>
          </g>
          <g id="cats-loader-u-copy-of-group2">
            <path id="cats-loader-s-path46" class="cls-18" d="M118.24,188.78l-.25-5.4"/>
            <path id="cats-loader-s-path47" class="cls-21" d="M105.8,188.11l.67-5.36"/>
            <path id="cats-loader-s-path48" class="cls-14" d="M93.94,185.41l1.56-5.18"/>
            <path id="cats-loader-s-path49" class="cls-20" d="M83.72,181.29l2.32-4.88"/>
            <path id="cats-loader-s-path50" class="cls-19" d="M71.39,173.58l3.25-4.32"/>
            <path id="cats-loader-s-path51" class="cls-22" d="M61.39,164.21l4-3.64"/>
            <path id="cats-loader-s-path52" class="cls-15" d="M54.03,154.29l4.56-2.91"/>
            <path id="cats-loader-s-path53" class="cls-17" d="M47.94,141.95l5.02-2"/>
            <path id="cats-loader-s-path54" class="cls-24" d="M44.24,128.44l5.31-1"/>
            <path id="cats-loader-s-path55" class="cls-16" d="M43.18,115.22l5.41-.02"/>
            <path id="cats-loader-s-path56" class="cls-25" d="M44.47,102.36l5.32.94"/>
            <path id="cats-loader-u-copy-of-path7" class="cls-23" d="M130.56,187.34l-1.16-5.28"/>
          </g>
        </g>
      </g>
      <path id="Legs" class="cls-9" d="M56.72,206.31c13.55,8.88,28.91,14.57,44.83,16.74l5.31-35.61c-11.49-1.48-22.56-5.72-32.16-12.43"/>
      <path id="Path" class="cls-43" d="M84.23,173.9c-2.85,3.01-4.97,6.36-6.17,10.27-.96-.56-6.04-3.7-7.3-4.66-2.31-2.17-2.78-5.03-1.25-7.64,1.26-1.91,3.91-4.42,7.85-2.27,1.37.89,2.29,1.5,2.79,1.82l4.08,2.49ZM66.96,205.43c-2.93,2.13-5,7.42-5.97,10.42-.96-.56-6.69-3.77-8.22-5.07-2.57-2.21-2.64-5.32-1.18-7.54,1.29-1.93,3.95-4.09,7.85-2.27.85.45,5.89,3.49,7.52,4.46h0Z"/>
      <path id="Belly" class="cls-38" d="M161.01,193.96c-43.05,24.85-98.09,10.1-122.94-32.94s-10.1-98.09,32.94-122.94,98.09-10.1,122.94,32.94,10.1,98.09-32.94,122.94"/>
      <path id="Arm_stroke" class="cls-6" d="M166.93,166.93c-7.05,7.05-15.2,12.34-23.9,15.85"/>
      <path id="Arm_stroke-2" data-name="Arm_stroke" class="cls-6" d="M192.38,192.38c-9.31,9.31-19.9,16.57-31.21,21.77"/>
      <path id="Arms" class="cls-8" d="M143.02,182.78c8.33-3.37,16.17-8.36,23.01-14.97,0,.04,21.17,29.29,21.24,29.37-8.01,7.05-16.82,12.71-26.1,16.98"/>
      <path id="Path-2" data-name="Path" class="cls-43" d="M142.85,176.29c1.09,3.99,2.99,7.52,5.71,10.58-.98.52-2.21,1.07-3.68,1.65-3.35.71-5.74-.26-7.18-2.91-.86-2.27-1.74-5.64,2.14-7.89,1.47-.7,2.47-1.18,3.01-1.43ZM160.92,207.62c1.09,3.99,2.99,7.52,5.71,10.58-.98.52-2.21,1.07-3.68,1.65-3.22.68-5.61-.29-7.18-2.91-1.04-1.82-1.74-5.64,2.14-7.89,1.47-.7,2.47-1.18,3.01-1.43Z"/>
      <g id="Head">
        <path id="cats-loader-s-path59" class="cls-44" d="M200.71,150.43s7-13.11,2.77-18c-6.44.55-17.56,9.54-26.32,20.32,7.77-1.46,15.65-2.24,23.55-2.32h0Z"/>
        <path id="cats-loader-s-path60" class="cls-42" d="M202.15,132.07s-11.47,3.69-24.99,20.69c5.42-.95,14.85-1.94,14.85-1.94,4.28-3.97,8.45-13.15,10.14-18.74Z"/>
        <path id="cats-loader-s-path61" class="cls-44" d="M211.72,163.9s13.37-3.64,17.32,1.48c-1.81,6.21-11.96,14.7-24.26,21.14,2.97-7.32,5.3-14.89,6.95-22.62Z"/>
        <path id="cats-loader-s-path62" class="cls-42" d="M229.32,166.31s-5.2,10.32-24.55,20.2c2.01-5.12,4.85-14.18,4.85-14.18,4.74-3.41,13.88-5.48,19.69-6.03h0Z"/>
        <path id="cats-loader-s-path63" class="cls-2" d="M207.18,194.21c-10.41,8.51-28.82,3.23-37.33-7.18s-9.43-28.75.98-37.27,28.2-3.98,36.72,6.43,10.05,29.5-.37,38.02Z"/>
        <path id="cats-loader-s-path64" class="cls-43" d="M205.8,157.69c3.26,4.06-5.67,9.61-9.86,12.85-2.81,2.41-5.22,4.45-3.02,8.54,4.62,11.92-6.56,15.79-16.24,4.93-9.29-11.43-4.54-23,6.27-16.87,3.69,2.93,5.62,1.56,9.02-1.74s10.56-11.77,13.83-7.71Z"/>
        <path id="cats-loader-s-path65" class="cls-40" d="M179.87,157.61c1.57-1.28,3.71-1.63,5.6-.92s3.27,2.39,3.59,4.39-.44,4.03-2.01,5.31"/>
        <path id="cats-loader-s-path66" class="cls-40" d="M194.25,175.19c2.43-1.99,6-1.63,7.99.8s1.63,6-.8,7.99"/>
        <path id="cats-loader-s-path67" class="cls-4" d="M178.84,172.48c-1.43,1.21-1.63,3.34-.44,4.79s3.31,1.68,4.78.51"/>
        <path id="cats-loader-s-path68" class="cls-4" d="M183.22,177.62c-1.43,1.21-1.63,3.34-.44,4.79s3.31,1.68,4.78.51"/>
        <path id="cats-loader-s-path69" class="cls-41" d="M184.28,178.8c-1.04-.47-1.81-1.39-2.07-2.5-.03-.12-.05-.24-.05-.36-.07-.88.19-1.76.73-2.46.59-.73,1.65-.85,2.4-.28,1.15.89,2.07,2.04,2.67,3.37.37.77.11,1.69-.6,2.15-.87.48-1.9.55-2.83.19-.09-.03-.17-.06-.25-.1Z"/>
        <path id="cats-loader-s-path70" class="cls-13" d="M207.56,194.84c-10.77,8.81-29.48,3.58-38.29-7.18s-9.39-29.6,1.37-38.4c3.91-3.07,7.78-4.58,12.82-4.74,6.52-5.96,15.03-12.09,19.91-12.51,3.3,7.78-.27,15.4-2.15,17.59,2.76,1.78,4.86,3.74,6.85,6.14,1.92,2.39,3.43,4.88,4.62,7.75,4.02-1.32,11.05-.47,17.01,1.79-1.33,4.53-8.12,10.63-14.8,15.66-.76,5.56-3.16,10.48-7.34,13.9h0Z"/>
        <line id="cats-loader-s-line5" class="cls-7" x1="205.4" y1="213.57" x2="190.42" y2="184.07"/>
        <line id="cats-loader-s-line6" class="cls-7" x1="190.65" y1="183.89" x2="216.59" y2="204.41"/>
        <line id="cats-loader-s-line7" class="cls-7" x1="160.58" y1="147.11" x2="178.04" y2="168.94"/>
        <line id="cats-loader-s-line8" class="cls-7" x1="178.82" y1="169.41" x2="163.84" y2="139.92"/>
        <line id="cats-loader-s-line9" class="cls-7" x1="208.89" y1="206.19" x2="190.97" y2="184.74"/>
        <line id="cats-loader-s-line10" class="cls-7" x1="152.65" y1="149.07" x2="178.58" y2="169.6"/>
      </g>
    </g>
  </g>
</svg>