<?xml version="1.0" encoding="UTF-8"?>
<svg xmlns="http://www.w3.org/2000/svg" viewBox="0 0 237.61 232.03">
  <defs>
    <style>
      .cls-1 {
        fill: #c3c0ba;
      }

      .cls-2 {
        stroke-width: 48px;
      }

      .cls-2, .cls-3, .cls-4, .cls-5, .cls-6, .cls-7, .cls-8, .cls-9, .cls-10, .cls-11, .cls-12, .cls-13, .cls-14 {
        fill: none;
      }

      .cls-2, .cls-3, .cls-4, .cls-5, .cls-6, .cls-8, .cls-9, .cls-10, .cls-11, .cls-12, .cls-13, .cls-14 {
        stroke-linecap: round;
      }

      .cls-2, .cls-3, .cls-5, .cls-6, .cls-8 {
        stroke-dasharray: 60 525.57;
      }

      .cls-2, .cls-3, .cls-5, .cls-6, .cls-8, .cls-10, .cls-13 {
        stroke-miterlimit: 4;
      }

      .cls-2, .cls-3, .cls-13, .cls-14 {
        stroke: #544b46;
      }

      .cls-3, .cls-13 {
        stroke-width: 12px;
      }

      .cls-15 {
        fill: #544b46;
      }

      .cls-4 {
        stroke-linejoin: round;
        stroke-width: 2px;
      }

      .cls-4, .cls-5, .cls-6, .cls-7, .cls-9, .cls-10, .cls-11, .cls-12, .cls-16 {
        stroke: #231f20;
      }

      .cls-5 {
        stroke-width: 52px;
      }

      .cls-17 {
        fill: #372f2a;
      }

      .cls-6, .cls-8, .cls-10 {
        stroke-width: 16px;
      }

      .cls-7, .cls-11, .cls-12, .cls-16 {
        stroke-miterlimit: 11.03;
      }

      .cls-7, .cls-12, .cls-16 {
        stroke-width: 1.1px;
      }

      .cls-8 {
        stroke: #c3c0ba;
      }

      .cls-18 {
        fill: #f6adad;
      }

      .cls-19 {
        fill: #fffffe;
      }

      .cls-20 {
        fill: #1e1a1b;
      }

      .cls-9 {
        stroke-width: 16px;
      }

      .cls-9, .cls-14 {
        stroke-miterlimit: 4;
      }

      .cls-21 {
        fill: #f89f9f;
      }

      .cls-11 {
        stroke-width: 1.1px;
      }

      .cls-14 {
        stroke-width: 12px;
      }

      .cls-16 {
        fill: #d6fbff;
      }
    </style>
  </defs>
  <g id="cats-loader" shape-rendering="geometricPrecision" text-rendering="geometricPrecision">
    <g id="grumpy_from_strokes">
      <g id="Tail">
        <path id="cats-loader-u-leg-stroke" class="cls-10" d="M106.87,187.44c-11.49-1.48-22.56-5.72-32.16-12.43"/>
        <path id="cats-loader-u-leg-stroke2" class="cls-10" d="M101.56,223.05c-15.92-2.16-31.28-7.85-44.83-16.74"/>
        <path id="cats-loader-u-tail2" class="cls-6" d="M88.47,201.7c-14.91-4.79-28.61-13.45-39.45-25.56"/>
        <path id="cats-loader-u-tail3" class="cls-3" d="M88.47,201.7c-14.91-4.79-28.61-13.45-39.45-25.56"/>
        <path id="cats-loader-s-path1" class="cls-1" d="M64.51,182.29c.55,7.22-.97,11.1-4.57,11.63-1.75-1-3.8-2.59-6.16-4.78l3.28-13.18c4.96,4.22,7.44,6.33,7.44,6.33h0Z"/>
        <path id="cats-loader-s-path2" class="cls-17" d="M58.08,176.8c-.64-.69-3.5-3.65-4.77-4.98-2.88-2.76-6.1-2.59-8.75.15-2.26,2.4-2.06,5.85-.66,7.59,1.06,1.5,8.69,9.37,11.89,11.39,5.89-2.72-1.91-12,2.28-14.14h0Z"/>
      </g>
      <path id="Body_stroke" class="cls-5" d="M161.01,193.96c-43.05,24.85-98.09,10.1-122.94-32.94s-10.1-98.09,32.94-122.94,98.09-10.1,122.94,32.94,10.1,98.09-32.94,122.94"/>
      <path id="Body" class="cls-2" d="M161.01,193.96c-43.05,24.85-98.09,10.1-122.94-32.94s-10.1-98.09,32.94-122.94,98.09-10.1,122.94,32.94,10.1,98.09-32.94,122.94"/>
      <path id="Legs" class="cls-13" d="M56.72,206.31c13.55,8.88,28.91,14.57,44.83,16.74l5.31-35.61c-11.49-1.48-22.56-5.72-32.16-12.43"/>
      <path id="Belly" class="cls-8" d="M161.01,193.96c-43.05,24.85-98.09,10.1-122.94-32.94s-10.1-98.09,32.94-122.94,98.09-10.1,122.94,32.94,10.1,98.09-32.94,122.94"/>
      <path id="Arm_stroke" class="cls-9" d="M166.93,166.93c-7.05,7.05-15.2,12.34-23.9,15.85"/>
      <path id="cats-loader-u-arm-stroke2" class="cls-9" d="M192.38,192.38c-9.31,9.31-19.9,16.57-31.21,21.77"/>
      <path id="Arms" class="cls-14" d="M143.02,182.78c8.33-3.37,16.17-8.36,23.01-14.97,0,.04,21.17,29.29,21.24,29.37-8.01,7.05-16.82,12.71-26.1,16.98"/>
      <g id="Head">
        <path id="cats-loader-s-path3" class="cls-15" d="M213.27,162.57s16.99.14,22.91,9.75c-.92,1.34-12.25,9.3-20.17,10.54-1.76-9.39-2.74-20.29-2.74-20.29h0Z"/>
        <path id="cats-loader-s-path4" class="cls-18" d="M236.21,172.37s-6.68-5.29-21.87-.49c.59,4.3,1.7,11.03,1.7,11.03,7.52-1.72,14.47-5.35,20.17-10.54Z"/>
        <path id="cats-loader-s-path5" class="cls-15" d="M200.74,148.66s1.64-16.92-7.3-23.8c-1.43.78-10.53,11.21-12.59,18.96,9.16,2.73,19.9,4.84,19.9,4.84h0Z"/>
        <path id="cats-loader-s-path6" class="cls-18" d="M193.39,124.81s4.56,7.19-1.8,21.8c-4.21-1.03-10.8-2.84-10.8-2.84,2.49-7.3,6.83-13.83,12.59-18.96Z"/>
        <path id="cats-loader-s-path7" class="cls-1" d="M196.78,142.01s14.72,9.81,23.29,25.87c1.26,2.42,1.5,4.03.47,8.42-.78,3.65-2.28,9.77-.83,15.89-2.99,1.98-19.74,9.34-31.38,1.03-11.55-8.19-18.42-17.75-21.5-24.22-3.17-6.14-4.2-18.77,5.21-30.09,1.36.61,11.77,1.79,16.46,1.13,2.83-.01,4.99-.06,8.29,1.98h0Z"/>
        <g id="cats-loader-u-face">
          <path id="cats-loader-s-path8" class="cls-15" d="M205.56,159.28s-2.75,5.28-11.18,11.86c-1.03.85-1.58,2.14-1.48,3.47.02,1.77,1.42,11.16-5.58,9.74.33,1.61.91,7.48,9.42,10.46,6,1.43,8.97,1.12,13.83-1.58,3.86-2.38,7.84-5.49,5.56-12.63-2.16-7.13-5.79-12.13-5.6-18.17.5-4.17-1.73-8.53-4.96-3.16Z"/>
          <path id="cats-loader-s-path9" class="cls-16" d="M212.68,183.98c-2.92,4.11-8.45,5.38-12.88,2.97s-6.35-7.76-4.47-12.44c.95.99,2.05,1.83,3.25,2.5,1.38.78,2.84,1.42,4.36,1.9,1.48.48,2.79.93,3.98,1.43,2.13.85,4.08,2.08,5.77,3.63Z"/>
          <path id="cats-loader-s-path10" class="cls-20" d="M206.13,182.6c-.92,1.42-2.54,2.23-4.23,2.13s-3.19-1.1-3.94-2.62-.62-3.32.33-4.72c.09-.13.18-.25.27-.37,1.38.78,2.84,1.42,4.36,1.9,1.48.48,2.79.93,3.98,1.43-.06.8-.33,1.58-.78,2.25Z"/>
          <path id="cats-loader-s-path11" class="cls-12" d="M194.24,172.42s1.06,4.11,9.14,6.79c5.23,1.69,8.29,3.12,11.66,7.07"/>
          <circle id="cats-loader-s-circle1" class="cls-19" cx="199.79" cy="181.45" r="1.75"/>
          <path id="cats-loader-s-path12" class="cls-15" d="M202.84,156.26s-5.54,2.19-12.97,9.88c-.95.93-2.29,1.35-3.6,1.11-1.76-.21-10.96-2.58-10.27,4.54-1.57-.49-7.34-1.68-9.42-10.46-.8-6.12-.18-9.04,3.01-13.59,2.77-3.59,6.28-7.22,13.14-4.21,6.87,2.9,11.46,7.03,17.48,7.46,4.21-.06,8.31,2.62,2.62,5.27Z"/>
          <path id="cats-loader-s-path13" class="cls-16" d="M179.02,146.6c-4.39,2.48-6.24,7.85-4.3,12.5s7.05,7.12,11.9,5.75c-.88-1.05-1.61-2.23-2.15-3.49-.63-1.46-1.11-2.98-1.44-4.53-.32-1.52-.64-2.87-1.01-4.11-.62-2.2-1.64-4.28-3.01-6.11Z"/>
          <path id="cats-loader-s-path14" class="cls-20" d="M179.72,153.26c-2.3,1.21-3.19,4.05-1.98,6.35s4.05,3.19,6.35,1.98c.14-.07.27-.15.4-.23-.63-1.46-1.11-2.98-1.44-4.53-.32-1.52-.64-2.87-1.01-4.11-.81-.02-1.61.16-2.32.54h0Z"/>
          <path id="cats-loader-s-path15" class="cls-12" d="M188.59,166.15s-3.98-1.49-5.8-9.8c-1.13-5.38-2.23-8.57-5.81-12.34"/>
          <circle id="cats-loader-s-circle2" class="cls-19" cx="180.2" cy="159.68" r="1.75"/>
          <ellipse id="cats-loader-s-ellipse1" class="cls-19" cx="184.51" cy="175.5" rx="6.51" ry="10.53" transform="translate(-70.04 168.54) rotate(-42)"/>
          <path id="cats-loader-s-path16" class="cls-11" d="M177.59,173.78c1.99-1.79,5.35-1.28,7.52,1.13s2.32,5.81.33,7.6"/>
          <line id="cats-loader-s-line1" class="cls-7" x1="185.11" y1="174.91" x2="185.98" y2="174.12"/>
          <path id="cats-loader-s-path17" class="cls-21" d="M190.77,176.54c-.44.4-1.74-.28-3.17-1.59-.69.18-1.42-.04-1.9-.57s-.62-1.28-.36-1.95c-1.15-1.56-1.7-2.93-1.25-3.33.56-.51,2.52.74,4.37,2.79s2.88,4.13,2.32,4.64h0Z"/>
        </g>
        <path id="cats-loader-s-path18" class="cls-4" d="M219.97,192.46c-3.03,2-19.95,9.45-31.72,1.04-11.67-8.28-18.62-17.94-21.74-24.48-3.2-6.22-4.24-18.97,5.27-30.42.9.4,5.91.47,10.47.69,3.3-7.11,9.93-14.2,11.16-14.87,6.44,4.96,8.23,14.74,8.28,20.15,6.32,5.14,11.68,11.04,16.23,17.8,5.43.64,14.5,3.23,18.68,10.03-.81,1.17-8.95,7.54-16.44,10.02-.55,3.41-.92,6.66-.2,10.05Z"/>
      </g>
    </g>
  </g>
</svg>