<?xml version="1.0" encoding="UTF-8"?>
<svg xmlns="http://www.w3.org/2000/svg" xmlns:xlink="http://www.w3.org/1999/xlink" viewBox="0 0 232.03 232.03">
  <defs>
    <style>
      .cls-1, .cls-2, .cls-3, .cls-4, .cls-5, .cls-6, .cls-7, .cls-8, .cls-9, .cls-10, .cls-11, .cls-12 {
        fill: none;
      }

      .cls-13 {
        fill: #232323;
      }

      .cls-2 {
        stroke-width: 16px;
      }

      .cls-2, .cls-3, .cls-14, .cls-5, .cls-7, .cls-8 {
        stroke: #572204;
      }

      .cls-2, .cls-3, .cls-4, .cls-5, .cls-7, .cls-8, .cls-9, .cls-10, .cls-11, .cls-12 {
        stroke-linecap: round;
      }

      .cls-2, .cls-11 {
        stroke-miterlimit: 4;
      }

      .cls-3, .cls-7 {
        stroke-width: 16px;
      }

      .cls-3, .cls-7, .cls-8, .cls-9, .cls-10, .cls-12 {
        stroke-miterlimit: 4;
      }

      .cls-15 {
        fill: #a06c52;
      }

      .cls-14 {
        fill: #bfeaef;
        stroke-width: 2px;
      }

      .cls-14, .cls-6 {
        stroke-miterlimit: 10;
      }

      .cls-16 {
        fill: #d44163;
      }

      .cls-17 {
        fill: #41210a;
      }

      .cls-4 {
        stroke: #f0c592;
        stroke-dasharray: 60 525.57;
        stroke-miterlimit: 4;
        stroke-width: 21px;
      }

      .cls-18 {
        fill: #603814;
      }

      .cls-19 {
        fill: #fff;
      }

      .cls-20 {
        fill: #ffb49f;
      }

      .cls-5 {
        stroke-miterlimit: 4.03;
        stroke-width: 2.01px;
      }

      .cls-21 {
        fill: #f0c592;
      }

      .cls-6 {
        stroke: #603814;
        stroke-width: 1.42px;
      }

      .cls-7, .cls-8, .cls-9, .cls-12 {
        stroke-dasharray: 60 525.57;
      }

      .cls-22 {
        fill: #b57e5f;
      }

      .cls-8 {
        stroke-width: 52px;
      }

      .cls-9 {
        stroke-width: 48px;
      }

      .cls-9, .cls-10, .cls-11, .cls-12 {
        stroke: #b57e5f;
      }

      .cls-10, .cls-12 {
        stroke-width: 12px;
      }

      .cls-11 {
        stroke-width: 12px;
      }

      .cls-23 {
        clip-path: url(#clippath);
      }
    </style>
    <clipPath id="clippath">
      <ellipse class="cls-1" cx="186.08" cy="173.12" rx="23.2" ry="26.64" transform="translate(-68.03 177.63) rotate(-43.95)"/>
    </clipPath>
  </defs>
  <g id="cats-loader" shape-rendering="geometricPrecision" text-rendering="geometricPrecision">
    <g id="scared_cat">
      <g id="Tail">
        <path id="cats-loader-u-leg-stroke7" class="cls-3" d="M107.2,187c-11.49-1.48-22.56-5.72-32.16-12.43"/>
        <path id="cats-loader-u-leg-stroke8" class="cls-3" d="M101.88,222.61c-15.92-2.16-31.28-7.85-44.83-16.74"/>
        <path id="cats-loader-u-tail11" class="cls-7" d="M88.8,201.26c-14.91-4.79-28.61-13.45-39.45-25.56"/>
        <path id="cats-loader-u-tail12" class="cls-12" d="M88.8,201.26c-14.91-4.79-28.61-13.45-39.45-25.56"/>
        <path id="cats-loader-s-path71" class="cls-21" d="M60.55,178.44c4,3.62,9.05,7.18,15.15,10.68-7.71,2.05-13.84-5.53-14.97-4.41-.81,1.33,3.14,4.51,1.96,7.8-3.01-4.76-5.57-1.22-10.06-5.09-.06-.05-6.24-5.88-7.88-7.82-1.18-1.62-2.83-3.83,0-7.79.56-.65,3.86-3.88,8.22-.9.33.2,2.86,2.71,7.58,7.53h0Z"/>
      </g>
      <path id="Body_Stroke" class="cls-8" d="M161.34,193.52c-43.05,24.85-98.09,10.1-122.94-32.94s-10.1-98.09,32.94-122.94,98.09-10.1,122.94,32.94,10.1,98.09-32.94,122.94"/>
      <path id="Body" class="cls-9" d="M161.34,193.52c-43.05,24.85-98.09,10.1-122.94-32.94s-10.1-98.09,32.94-122.94,98.09-10.1,122.94,32.94,10.1,98.09-32.94,122.94"/>
      <path id="Legs" class="cls-10" d="M57.05,205.88c13.55,8.88,28.91,14.57,44.83,16.74l5.31-35.61c-11.49-1.48-22.56-5.72-32.16-12.43"/>
      <path id="Belly" class="cls-4" d="M155.34,196.69c-44.8,21.54-98.57,2.69-120.11-42.11s-2.69-98.57,42.11-120.11,98.57-2.69,120.11,42.11,2.69,98.57-42.11,120.11"/>
      <path id="Arm_stroke" class="cls-2" d="M167.25,166.49c-7.05,7.05-15.2,12.34-23.9,15.85"/>
      <path id="Arm_stroke-2" data-name="Arm_stroke" class="cls-2" d="M192.71,191.95c-9.31,9.31-19.9,16.57-31.21,21.77"/>
      <path id="Arms" class="cls-11" d="M143.35,182.34c8.33-3.37,16.17-8.36,23.01-14.97,0,.04,21.17,29.29,21.24,29.37-8.01,7.05-16.82,12.71-26.1,16.98"/>
      <g id="Head">
        <path id="cats-loader-s-path72" class="cls-15" d="M207.46,168.71s9.36-4.35,12.02-1.36c1.5,2.48,1.17,3.98-9.54,14.31-2.07-10.68-2.48-12.95-2.48-12.95Z"/>
        <path id="cats-loader-s-path73" class="cls-20" d="M207.87,170.54s6.64-3.09,8.53-.97c.72,1.16.83,2.83-6.77,10.15-1.47-7.57-1.76-9.18-1.76-9.18Z"/>
        <path id="cats-loader-s-path74" class="cls-15" d="M191.27,151.92s4.69-9.19,1.8-11.96c-1.46-1.31-3.94-1.32-14.65,9.01,10.59,2.46,12.85,2.95,12.85,2.95h0Z"/>
        <path id="cats-loader-s-path75" class="cls-20" d="M189.46,151.45s3.34-6.74,1.28-8.49c-.92-.71-2.79-.94-10.39,6.39,7.52,1.74,9.12,2.09,9.12,2.09Z"/>
        <g class="cls-23">
          <g id="cats-loader-s-g5">
            <g id="cats-loader-s-g6">
              <ellipse id="cats-loader-s-ellipse2" class="cls-21" cx="186.08" cy="173.12" rx="23.2" ry="26.64" transform="translate(-68.03 177.63) rotate(-43.95)"/>
              <ellipse id="cats-loader-s-ellipse3" class="cls-22" cx="180.13" cy="152.67" rx="19.23" ry="16.32" transform="translate(-29.1 262.09) rotate(-67.89)"/>
              <ellipse id="cats-loader-s-ellipse4" class="cls-22" cx="206.3" cy="179.82" rx="19.23" ry="16.32" transform="translate(-49.08 81.45) rotate(-20.01)"/>
            </g>
          </g>
        </g>
        <g id="cats-loader-s-g7">
          <circle id="cats-loader-s-circle4" class="cls-14" cx="180.31" cy="161.53" r="7.2"/>
          <circle id="cats-loader-s-circle5" class="cls-13" cx="180.31" cy="161.53" r="1.88"/>
          <circle id="cats-loader-s-circle6" class="cls-19" cx="180.15" cy="160.38" r=".94"/>
        </g>
        <g id="cats-loader-s-g8">
          <circle id="cats-loader-s-circle7" class="cls-14" cx="197.81" cy="179.08" r="7.2"/>
          <circle id="cats-loader-s-circle8" class="cls-13" cx="197.81" cy="179.08" r="1.88"/>
          <circle id="cats-loader-s-circle9" class="cls-19" cx="197.65" cy="177.93" r=".94"/>
        </g>
        <ellipse id="cats-loader-s-ellipse6" class="cls-17" cx="178.13" cy="180.81" rx="5.62" ry="5.02" transform="translate(-75.6 174.27) rotate(-43.95)"/>
        <path id="cats-loader-s-path76" class="cls-16" d="M178.55,186.03c-1.64.47-3.41-.01-4.58-1.26-1.16-1.16-1.57-2.87-1.07-4.44,1.69-1.01,4.08-1.09,5.4.28,1.28,1.55,1.38,3.76.25,5.41h0Z"/>
        <path id="cats-loader-s-path77" class="cls-19" d="M178.55,175.46l-.18,2.13,1.65-1.96c-.48-.12-.98-.17-1.47-.17Z"/>
        <path id="cats-loader-s-path78" class="cls-19" d="M183.48,180.57l-2.13.1,2.02-1.58c.1.49.13.98.11,1.48Z"/>
        <line id="cats-loader-s-line11" class="cls-6" x1="184.24" y1="175.03" x2="182.19" y2="177.05"/>
        <path id="cats-loader-s-path79" class="cls-18" d="M185.99,175.81l-1.49-.03c-.61-.02-1.09-.54-1.07-1.15l.03-1.55c0-.45.26-.86.67-1.02s.89-.07,1.2.26l1.46,1.57c.31.33.39.8.22,1.22s-.58.69-1.02.69h0Z"/>
        <path id="cats-loader-s-path80" class="cls-5" d="M168.72,189.8c-10.52-10.91-11.34-27.16-1.84-36.33,3.25-3.11,7.53-5.38,11.98-6.02,10.44-9.95,12.47-9.34,14.39-8.4,2.95,1.73,1.35,7.34.12,10.3,8.58,4.07,12.81,9.18,16.66,17.33,3-1.12,8.82-2.01,10.26.61.8,1.43,1.5,4-8.84,14.08-.8,4.41-3.29,8.47-6.5,11.6-9.5,9.17-25.72,7.74-36.23-3.16h0Z"/>
      </g>
    </g>
  </g>
</svg>