<?xml version="1.0" encoding="UTF-8"?>
<svg xmlns="http://www.w3.org/2000/svg" xmlns:xlink="http://www.w3.org/1999/xlink" viewBox="0 0 232.03 232.03">
  <defs>
    <style>
      .cls-1, .cls-2, .cls-3, .cls-4, .cls-5, .cls-6, .cls-7, .cls-8, .cls-9, .cls-10, .cls-11, .cls-12, .cls-13, .cls-14, .cls-15, .cls-16, .cls-17, .cls-18, .cls-19, .cls-20, .cls-21, .cls-22, .cls-23, .cls-24 {
        fill: none;
      }

      .cls-2, .cls-3, .cls-4, .cls-5, .cls-6, .cls-7, .cls-8, .cls-9, .cls-10, .cls-11, .cls-12, .cls-13, .cls-14, .cls-15, .cls-16, .cls-17, .cls-18, .cls-19, .cls-20, .cls-21, .cls-22, .cls-23, .cls-24 {
        stroke-linecap: round;
      }

      .cls-2, .cls-3, .cls-4, .cls-5, .cls-6, .cls-7, .cls-8, .cls-9, .cls-10, .cls-15, .cls-16, .cls-17, .cls-18, .cls-19, .cls-20, .cls-22, .cls-23, .cls-24 {
        stroke: #c31812;
      }

      .cls-2, .cls-12, .cls-13, .cls-14, .cls-21, .cls-22, .cls-23 {
        stroke-miterlimit: 4;
      }

      .cls-2, .cls-21, .cls-22 {
        stroke-width: 16px;
      }

      .cls-3 {
        stroke-width: 16px;
      }

      .cls-3, .cls-11 {
        stroke-miterlimit: 4;
      }

      .cls-25 {
        fill: #fae9d8;
      }

      .cls-4 {
        stroke-width: 2.04px;
      }

      .cls-4, .cls-6, .cls-24 {
        stroke-miterlimit: 10.19;
      }

      .cls-5 {
        stroke-width: 2px;
      }

      .cls-5, .cls-7, .cls-8, .cls-9, .cls-10 {
        stroke-linejoin: round;
      }

      .cls-6 {
        stroke-width: 1.53px;
      }

      .cls-7 {
        stroke-width: 4px;
      }

      .cls-8 {
        stroke-width: 4px;
      }

      .cls-9 {
        stroke-width: 4px;
      }

      .cls-10 {
        stroke-width: 4px;
      }

      .cls-11 {
        stroke-width: 12px;
      }

      .cls-11, .cls-12, .cls-13, .cls-14 {
        stroke: #f3b678;
      }

      .cls-12, .cls-13 {
        stroke-width: 12px;
      }

      .cls-13, .cls-14, .cls-21, .cls-22, .cls-23 {
        stroke-dasharray: 60 525.57;
      }

      .cls-26 {
        fill: #f3b678;
      }

      .cls-14 {
        stroke-width: 48px;
      }

      .cls-15 {
        stroke-miterlimit: 4.08;
        stroke-width: 1.53px;
      }

      .cls-16 {
        stroke-miterlimit: 4.08;
        stroke-width: 1.53px;
      }

      .cls-17 {
        stroke-miterlimit: 4.08;
        stroke-width: 1.53px;
      }

      .cls-18 {
        stroke-miterlimit: 4.08;
        stroke-width: 1.53px;
      }

      .cls-19 {
        stroke-miterlimit: 4.08;
        stroke-width: 1.53px;
      }

      .cls-20 {
        stroke-miterlimit: 4.08;
        stroke-width: 1.53px;
      }

      .cls-27 {
        fill: #c31812;
      }

      .cls-21 {
        stroke: #ffe2c5;
      }

      .cls-23 {
        stroke-width: 52px;
      }

      .cls-24 {
        stroke-width: 5.09px;
      }

      .cls-28 {
        clip-path: url(#clippath);
      }
    </style>
    <clipPath id="clippath">
      <path class="cls-1" d="M216.66,191.7c-3.32,2.68-19.57,15.24-41.22-6.51-1.28-1.28-2.48-2.64-3.6-4.07-18.95-24.14-4.5-38.73-1.43-41.7,4.54,2.2,8.58,1.21,12.99.93,17.92-2.83,26.51,8.64,26.89,9.07.23.23,1.09,1.2,1.29,1.46h0c.47.54,10.72,10.35,5.72,27.8-.81,4.35-2.28,8.24-.66,13.01h0Z"/>
    </clipPath>
  </defs>
  <g id="cats-loader" shape-rendering="geometricPrecision" text-rendering="geometricPrecision">
    <g id="sleepy_cat">
      <g id="Tail">
        <path id="cats-loader-u-leg-stroke3" class="cls-2" d="M107.05,187.44c-11.49-1.48-22.56-5.72-32.16-12.43"/>
        <path id="cats-loader-u-leg-stroke4" class="cls-2" d="M101.56,223.05c-15.92-2.16-31.28-7.85-44.83-16.74"/>
        <path id="cats-loader-u-tail5" class="cls-22" d="M88.47,201.7c-14.91-4.79-28.61-13.45-39.45-25.56"/>
        <path id="cats-loader-u-tail6" class="cls-13" d="M88.47,201.7c-14.91-4.79-28.61-13.45-39.45-25.56"/>
        <path id="cats-loader-s-path19" class="cls-9" d="M75.65,189.79c-1.71,2.73-4.16,10.62-4.32,11.09"/>
        <path id="cats-loader-u-copy-of-path" class="cls-8" d="M69.16,185.93c-3.02,3.34-4.91,10.44-5.23,10.6"/>
        <path id="cats-loader-u-copy-of-path2" class="cls-7" d="M62.94,181.19c-2.25,1.84-5.35,7.18-6.03,10.55"/>
        <path id="cats-loader-u-copy-of-path3" class="cls-10" d="M57.07,176.2c-2.6,1.94-6.4,8.09-6.8,9.89"/>
        <path id="cats-loader-s-path20" class="cls-27" d="M53.85,171.8s-7.85,4.23-8.21,10.7c-3.37-3.26-5.54-6.44-1.16-11.1,3.82-3.55,6.94-2.36,9.37.41Z"/>
      </g>
      <path id="Body_stroke" class="cls-23" d="M161.01,193.96c-43.05,24.85-98.09,10.1-122.94-32.94s-10.1-98.09,32.94-122.94,98.09-10.1,122.94,32.94,10.1,98.09-32.94,122.94"/>
      <path id="Body" class="cls-14" d="M161.01,193.96c-43.05,24.85-98.09,10.1-122.94-32.94s-10.1-98.09,32.94-122.94,98.09-10.1,122.94,32.94,10.1,98.09-32.94,122.94"/>
      <path id="Legs" class="cls-12" d="M56.72,206.31c13.55,8.88,28.91,14.57,44.83,16.74l5.31-35.61c-11.49-1.48-22.56-5.72-32.16-12.43"/>
      <path id="Belly" class="cls-21" d="M161.01,193.96c-43.05,24.85-98.09,10.1-122.94-32.94s-10.1-98.09,32.94-122.94,98.09-10.1,122.94,32.94,10.1,98.09-32.94,122.94"/>
      <path id="Arm_Stroke" class="cls-3" d="M166.93,166.93c-7.05,7.05-15.2,12.34-23.9,15.85"/>
      <path id="Arm_Stroke-2" data-name="Arm_Stroke" class="cls-3" d="M192.38,192.38c-9.31,9.31-19.9,16.57-31.21,21.77"/>
      <path id="Arms" class="cls-11" d="M143.02,182.78c8.33-3.37,16.17-8.36,23.01-14.97,0,.04,21.17,29.29,21.24,29.37-8.01,7.05-16.82,12.71-26.1,16.98"/>
      <g id="Head">
        <path id="cats-loader-s-path21" class="cls-26" d="M217.19,162.87s14.09,7.15,12.91,14.59c-.77,2.42-7.09,4.72-16.69,1.76,2.63-11.07,3.78-16.35,3.78-16.35h0Z"/>
        <path id="cats-loader-s-path22" class="cls-27" d="M217.56,172.38s10.07,2.49,11.87,5.48c-1.02,2.19-7.53,3.5-14.22,1.42.63-1.92,1.36-5.13,2.35-6.9h0Z"/>
        <path id="cats-loader-s-path23" class="cls-26" d="M200.84,144.39s-5.37-14.85-12.91-14.59c-2.5.46-5.55,6.46-3.78,16.35,11.31-1.26,16.69-1.76,16.69-1.76h0Z"/>
        <path id="cats-loader-s-path24" class="cls-27" d="M191.35,142.95s-.74-11.24-3.44-13.46c-2.92,1.2-4.48,8.25-3.4,15.17,1.99-.34,4.94-.99,6.83-1.71Z"/>
        <g class="cls-28">
          <g id="cats-loader-s-g1">
            <g id="cats-loader-s-g2">
              <path id="cats-loader-s-path25" class="cls-26" d="M216.66,191.7c-3.32,2.68-19.57,15.24-41.22-6.51-1.28-1.28-2.48-2.64-3.6-4.07-18.95-24.14-4.5-38.73-1.43-41.7,4.54,2.2,8.62,2.21,13.04,1.93,18.43-2.19,26.46,7.64,26.84,8.07h0c.23.23,1.09,1.2,1.29,1.46h0c.47.54,10.72,10.35,5.72,27.8-.81,4.35-2.28,8.24-.66,13.01h0Z"/>
              <line id="cats-loader-s-line2" class="cls-24" x1="212.29" y1="149.95" x2="199.92" y2="160.89"/>
              <line id="cats-loader-s-line3" class="cls-24" x1="209.59" y1="140.72" x2="197.22" y2="151.66"/>
              <line id="cats-loader-s-line4" class="cls-24" x1="221.38" y1="153.27" x2="209.02" y2="164.21"/>
            </g>
          </g>
        </g>
        <path id="cats-loader-s-path27" class="cls-4" d="M189.89,159.5c-2.46,2.17-6.21,1.94-8.39-.51s-1.94-6.21.51-8.39"/>
        <path id="cats-loader-s-path28" class="cls-4" d="M207.11,178.97c-2.46,2.12-6.18,1.87-8.33-.56s-1.95-6.15.46-8.34"/>
        <path id="cats-loader-s-path29" class="cls-25" d="M168.95,170.42c2.95,8.81,9.78,15.45,15.66,19.03,5.8,3.31,10.44.96,9.17-12.43-.87-9.21-3.38-11.26-10.76-13.26-6.11-1.61-16.81-2.37-14.07,6.65h0Z"/>
        <path id="cats-loader-s-path30" class="cls-6" d="M184.88,173.35c-1.46,1.29-3.69,1.15-4.97-.3s-1.15-3.69.3-4.97"/>
        <path id="cats-loader-s-path31" class="cls-6" d="M189.55,178.63c-1.46,1.29-3.69,1.15-4.97-.3s-1.15-3.69.3-4.97"/>
        <circle id="cats-loader-s-circle3" class="cls-27" cx="186.9" cy="171.56" r="3.04"/>
        <path id="cats-loader-s-path32" class="cls-5" d="M170.93,179.89c-14.42-21.07-7.2-34.21-.7-40.19,4.6,2.15,8.77,1.05,13.31.66.07-.02.14-.03.22-.03.19-6.53,2.64-10.44,4.66-10.86,5.73-.33,10.28,8.22,12.14,12.48,4.15,1.51,7.56,3.68,10.36,7.04h0c.22.24,1.08,1.21,1.29,1.47h0c3.27,3.47,5.46,7.82,6.33,12.55,3.08,1.67,12.66,7.96,11.49,14.44-.74,2.16-4.28,3.96-11.98,2.66-.92,3.88-2.98,7.58-1.58,11.87-5.92,5.01-17.4,12.59-36.53-2.38"/>
        <g id="cats-loader-s-g3">
          <path id="cats-loader-s-path33" class="cls-18" d="M195.28,182.49l29.61,26.52"/>
          <path id="cats-loader-u-copy-of-path4" class="cls-20" d="M195.2,182.62l6.82,39.16"/>
          <path id="cats-loader-u-copy-of-path-2" class="cls-15" d="M195.25,182.57l15.27,26.53"/>
        </g>
        <g id="cats-loader-u-copy-of-group">
          <path id="cats-loader-s-path34" class="cls-17" d="M178.4,161.83l-18.04-35.41"/>
          <path id="cats-loader-u-copy-of-path5" class="cls-19" d="M178.26,161.85l-36.1-16.63"/>
          <path id="cats-loader-u-copy-of-path-22" class="cls-16" d="M178.31,161.84l-21.99-21.74"/>
        </g>
      </g>
    </g>
  </g>
</svg>